#!OML:ASF Y:\EmotionMaleHayes\Project 1\Capture day 1\Session 1\Male1.ASF
:FULLY-SPECIFIED
:DEGREES
805
root 36.2229 16.1806 14.9574 524.989 55.695 522.697
lowerback 6.81422 -1.28436 -17.2007
upperback 2.80743 -2.4911 -2.89057
thorax -0.174016 -1.23547 6.68598
lowerneck -18.5818 9.45028 10.4671
upperneck 25.7353 14.6448 -11.7429
head 13.4932 6.29142 -3.61681
rclavicle -2.66371e-014 6.36111e-015
rhumerus -55.0741 -3.01009 -83.1523
rradius 27.4832
rwrist 13.2338
rhand -1.68908 -27.8962
rfingers 7.12502
rthumb 23.9716 -56.4196
lclavicle -2.66371e-014 6.36111e-015
lhumerus -9.62175 -28.2427 86.6277
lradius 52.5583
lwrist 6.00542
lhand -20.4442 -28.6483
lfingers 7.12502
lthumb 5.91096 1.2492
rfemur -27.4412 0.634054 -1.58468
rtibia 15.7732
rfoot -11.4649 5.63638
rtoes -6.5176
lfemur 23.3149 -7.26995 -41.2632
ltibia 12.6
lfoot -18.5273 -10.6682
ltoes 16.7111
806
root 36.4029 16.1612 14.8877 525.17 55.0795 522.776
lowerback 6.76129 -1.36336 -17.1509
upperback 2.75619 -2.58694 -2.92516
thorax -0.181443 -1.27829 6.62529
lowerneck -18.5145 9.47884 10.457
upperneck 25.8503 14.6578 -11.5459
head 13.5068 6.32263 -3.53887
rclavicle 4.60187e-014 -6.04305e-014
rhumerus -54.4679 -3.4752 -82.25
rradius 27.0843
rwrist 13.8885
rhand -2.32736 -27.9329
rfingers 7.12502
rthumb 23.3594 -56.5354
lclavicle 4.60187e-014 -6.04305e-014
lhumerus -10.3155 -27.9612 87.0068
lradius 52.1866
lwrist 5.97043
lhand -20.4021 -28.8456
lfingers 7.12502
lthumb 5.95161 1.05079
rfemur -27.402 1.6843 -1.92312
rtibia 16.8512
rfoot -10.1157 5.35428
rtoes -5.24792
lfemur 23.658 -7.68365 -41.4034
ltibia 13.3073
lfoot -18.1683 -10.5935
ltoes 16.6388
807
root 36.5897 16.1407 14.8232 525.551 54.6625 523.109
lowerback 6.52103 -1.4374 -17.1651
upperback 2.8189 -2.63083 -2.81034
thorax 0.0386928 -1.32449 6.74697
lowerneck -18.4045 9.67792 10.8415
upperneck 25.9298 14.9979 -11.895
head 13.6375 6.47501 -3.67175
rclavicle 7.00716e-014 -3.26007e-014
rhumerus -53.5548 -3.77543 -81.3688
rradius 26.7184
rwrist 14.1487
rhand -2.68692 -28.1885
rfingers 7.12502
rthumb 23.0144 -56.8345
lclavicle 7.00716e-014 -3.26007e-014
lhumerus -11.0297 -27.3666 87.3615
lradius 51.9118
lwrist 5.7435
lhand -20.305 -28.8416
lfingers 7.12502
lthumb 6.04532 1.05215
rfemur -27.4907 3.01051 -2.08399
rtibia 17.6999
rfoot -8.26461 4.96791
rtoes -5.6927
lfemur 23.9245 -8.2052 -41.3389
ltibia 14.1958
lfoot -17.8968 -10.4392
ltoes 17.2596
808
root 36.7732 16.1231 14.7589 526.274 54.3936 523.788
lowerback 6.51318 -1.41656 -16.7948
upperback 2.68456 -2.61369 -2.69229
thorax -0.125125 -1.30182 6.67573
lowerneck -17.2794 9.77983 12.0244
upperneck 25.3353 15.2149 -13.0347
head 13.4187 6.62407 -4.29892
rclavicle -7.72278e-014 -8.74653e-015
rhumerus -52.9511 -4.29831 -80.4743
rradius 26.4645
rwrist 14.1723
rhand -3.26971 -28.674
rfingers 7.12502
rthumb 22.4551 -57.3886
lclavicle -7.72278e-014 -8.74653e-015
lhumerus -12.1276 -26.7089 87.943
lradius 51.596
lwrist 5.14407
lhand -20.5517 -28.7676
lfingers 7.12502
lthumb 5.80716 1.13282
rfemur -27.7609 3.99377 -1.91661
rtibia 18.5266
rfoot -6.41077 4.72879
rtoes -3.05727
lfemur 24.0703 -8.73283 -41.0068
ltibia 15.1994
lfoot -17.1922 -10.2621
ltoes 19.052
809
root 36.9535 16.1126 14.6902 527.246 54.1425 524.734
lowerback 6.42581 -1.40866 -16.3159
upperback 2.60114 -2.59031 -2.45429
thorax -0.190543 -1.29044 6.66858
lowerneck -17.3864 9.82195 11.9196
upperneck 25.5778 15.3633 -13.0245
head 13.555 6.67793 -4.24697
rclavicle 2.24627e-014 4.92986e-014
rhumerus -52.1738 -4.50479 -79.7295
rradius 25.8617
rwrist 14.8414
rhand -4.53216 -28.7223
rfingers 7.12502
rthumb 21.2429 -57.5783
lclavicle 2.24627e-014 4.92986e-014
lhumerus -13.0397 -25.6648 88.6881
lradius 51.0379
lwrist 4.31672
lhand -20.669 -28.8815
lfingers 7.12502
lthumb 5.6939 1.02204
rfemur -28.1533 4.48266 -1.45572
rtibia 19.6736
rfoot -4.93276 4.80077
rtoes 0.167525
lfemur 24.1588 -9.21193 -40.4885
ltibia 16.096
lfoot -16.0955 -10.1276
ltoes 20.2047
810
root 37.1308 16.1105 14.614 528.191 53.8476 525.817
lowerback 6.32701 -1.40853 -15.6569
upperback 2.65422 -2.54449 -2.23956
thorax -0.117241 -1.28153 6.53177
lowerneck -17.5325 9.88813 11.9148
upperneck 25.744 15.5134 -13.0787
head 13.6855 6.73108 -4.23336
rclavicle -2.78299e-015 1.55052e-014
rhumerus -51.2244 -4.90889 -78.8958
rradius 25.1866
rwrist 16.0755
rhand -5.38522 -28.7057
rfingers 7.12502
rthumb 20.4233 -57.6517
lclavicle -2.78299e-015 1.55052e-014
lhumerus -13.7461 -24.8356 89.283
lradius 50.3003
lwrist 3.71651
lhand -20.6205 -28.9093
lfingers 7.12502
lthumb 5.74071 0.992904
rfemur -28.4778 4.64201 -0.766285
rtibia 21.2586
rfoot -3.91251 4.81461
rtoes 4.77544
lfemur 24.2612 -9.42428 -39.7938
ltibia 16.9516
lfoot -15.5331 -10.1778
ltoes 17.8248
811
root 37.3087 16.1113 14.5324 529.252 53.5608 527.282
lowerback 6.46178 -1.40561 -14.691
upperback 2.68863 -2.52672 -2.00493
thorax -0.204785 -1.27254 6.25663
lowerneck -17.6291 9.94508 11.9491
upperneck 26.0338 15.6342 -13.0208
head 13.8445 6.78983 -4.19197
rclavicle -2.98177e-014 -3.73715e-014
rhumerus -50.4733 -6.05428 -77.4777
rradius 24.8796
rwrist 17.6762
rhand -5.42888 -28.9369
rfingers 7.12502
rthumb 20.3813 -57.8874
lclavicle -2.98177e-014 -3.73715e-014
lhumerus -14.7484 -24.0977 89.8295
lradius 49.6539
lwrist 3.2177
lhand -20.6381 -28.7808
lfingers 7.12502
lthumb 5.72376 1.12192
rfemur -28.4493 4.98964 0.27329
rtibia 22.8583
rfoot -3.46155 4.19361
rtoes 6.86378
lfemur 24.5816 -9.975 -39.0314
ltibia 18.9765
lfoot -15.7577 -10.6945
ltoes 20.3108
812
root 37.4888 16.1129 14.4487 530.137 53.2944 528.681
lowerback 6.68308 -1.3725 -13.7534
upperback 2.74988 -2.4756 -1.76278
thorax -0.315522 -1.24564 6.00304
lowerneck -18.8529 10.0419 10.9777
upperneck 27.3867 15.7985 -11.7599
head 14.4744 6.83532 -3.4683
rclavicle -5.04913e-014 -7.196e-014
rhumerus -49.7501 -7.25967 -76.0431
rradius 24.6374
rwrist 19.0869
rhand -5.89968 -29.1373
rfingers 7.12502
rthumb 19.9288 -58.1355
lclavicle -5.04913e-014 -7.196e-014
lhumerus -15.8503 -23.1529 90.404
lradius 49.0301
lwrist 2.5063
lhand -20.545 -28.774
lfingers 7.12502
lthumb 5.81368 1.1262
rfemur -28.1949 5.32041 1.3766
rtibia 24.4567
rfoot -3.58827 3.34107
rtoes 3.03615
lfemur 24.6827 -9.49833 -37.8335
ltibia 19.618
lfoot -14.8605 -9.23922
ltoes 11.7442
813
root 37.6674 16.1173 14.3685 530.262 52.9708 529.321
lowerback 7.0814 -1.30696 -13.3346
upperback 2.85767 -2.41843 -1.63283
thorax -0.45127 -1.21219 5.91922
lowerneck -18.4283 10.0281 11.4614
upperneck 27.2623 15.8365 -12.2357
head 14.4384 6.87436 -3.7448
rclavicle 9.93923e-016 4.69132e-014
rhumerus -48.8859 -7.80161 -75.1995
rradius 24.4849
rwrist 19.3268
rhand -6.51365 -29.5995
rfingers 7.12502
rthumb 19.3385 -58.6579
lclavicle 9.93923e-016 4.69132e-014
lhumerus -16.921 -22.1888 90.9296
lradius 48.2435
lwrist 2.03034
lhand -20.5453 -29.0932
lfingers 7.12502
lthumb 5.81337 0.807013
rfemur -27.7319 5.28129 2.04984
rtibia 25.9894
rfoot -4.45152 2.55201
rtoes -3.01367
lfemur 24.8544 -9.46319 -37.3094
ltibia 21.5279
lfoot -14.0601 -9.09223
ltoes 12.7584
